<svg xmlns="http://www.w3.org/2000/svg" viewBox="0 0 563 210" width="100%" class="css-13o7eu2 e101vm530"><g fill="none" fill-rule="evenodd" transform="translate(3 3)"><circle cx="64.5" cy="177.5" fill="#FFFFFF" r="3.5"/><circle cx="161.5" cy="150.5" fill="#FFFFFF" r="3.5"/><g stroke="#FFFFFF" stroke-width="5" class="svg-stroke"><rect height="55" rx="8" width="81" y="149"/><path d="M40 149v-47a8 8 0 018-8h122a8 8 0 018 8v94a8 8 0 01-8 8H66M135 93V8a8 8 0 018-8h270a8 8 0 018 8v52m-43.34 129H179"/><rect height="128" rx="8" width="183" x="370" y="61"/><path d="M231.5 203.415h98.273M367.5 203.415h189.863" stroke-linecap="round"/></g></g></svg>